<mxfile host="app.diagrams.net" agent="Mozilla/5.0 (Windows NT 10.0; Win64; x64; rv:132.0) Gecko/20100101 Firefox/132.0" version="24.8.6">
  <diagram name="Page-1" id="e7e014a7-5840-1c2e-5031-d8a46d1fe8dd">
    <mxGraphModel dx="954" dy="626" grid="1" gridSize="10" guides="1" tooltips="1" connect="1" arrows="1" fold="1" page="1" pageScale="1" pageWidth="1169" pageHeight="826" background="none" math="0" shadow="0">
      <root>
        <mxCell id="0" />
        <mxCell id="1" parent="0" />
        <mxCell id="2" value="Bot" style="swimlane;whiteSpace=wrap;strokeColor=default;" parent="1" vertex="1">
          <mxGeometry x="300" y="120" width="300" height="600" as="geometry" />
        </mxCell>
        <mxCell id="5" value="" style="ellipse;shape=startState;fillColor=#000000;strokeColor=default;" parent="2" vertex="1">
          <mxGeometry x="135" y="30" width="30" height="30" as="geometry" />
        </mxCell>
        <mxCell id="dX1tPgIVMrB4nz6N0DZW-41" value="Request&amp;nbsp;&lt;div&gt;price prediction&lt;/div&gt;" style="rounded=1;whiteSpace=wrap;html=1;arcSize=40;fontColor=#000000;fillColor=#FFFFFF;strokeColor=#000000;shadow=0;" parent="2" vertex="1">
          <mxGeometry x="90" y="90" width="120" height="40" as="geometry" />
        </mxCell>
        <mxCell id="dX1tPgIVMrB4nz6N0DZW-43" value="&lt;div&gt;Fill stock details&lt;/div&gt;" style="rounded=1;whiteSpace=wrap;html=1;arcSize=40;fontColor=#000000;fillColor=#FFFFFF;strokeColor=#000000;shadow=0;" parent="2" vertex="1">
          <mxGeometry x="90" y="170" width="120" height="40" as="geometry" />
        </mxCell>
        <mxCell id="dX1tPgIVMrB4nz6N0DZW-72" value="" style="edgeStyle=orthogonalEdgeStyle;rounded=0;orthogonalLoop=1;jettySize=auto;html=1;" parent="2" source="dX1tPgIVMrB4nz6N0DZW-50" target="dX1tPgIVMrB4nz6N0DZW-66" edge="1">
          <mxGeometry relative="1" as="geometry" />
        </mxCell>
        <mxCell id="dX1tPgIVMrB4nz6N0DZW-50" value="&lt;div&gt;DOWN&lt;/div&gt;" style="rounded=1;whiteSpace=wrap;html=1;arcSize=40;fontColor=#000000;fillColor=#FFFFFF;strokeColor=#000000;shadow=0;" parent="2" vertex="1">
          <mxGeometry x="25" y="440" width="65" height="40" as="geometry" />
        </mxCell>
        <mxCell id="dX1tPgIVMrB4nz6N0DZW-49" value="&lt;div&gt;Check signal&lt;/div&gt;" style="rounded=1;whiteSpace=wrap;html=1;arcSize=40;fontColor=#000000;fillColor=#FFFFFF;strokeColor=#000000;shadow=0;" parent="2" vertex="1">
          <mxGeometry x="90" y="253" width="120" height="40" as="geometry" />
        </mxCell>
        <mxCell id="dX1tPgIVMrB4nz6N0DZW-59" value="" style="edgeStyle=orthogonalEdgeStyle;rounded=0;orthogonalLoop=1;jettySize=auto;html=1;exitX=0.5;exitY=1;exitDx=0;exitDy=0;entryX=0.5;entryY=0;entryDx=0;entryDy=0;" parent="2" source="5" target="dX1tPgIVMrB4nz6N0DZW-41" edge="1">
          <mxGeometry relative="1" as="geometry">
            <mxPoint x="250" y="390" as="targetPoint" />
          </mxGeometry>
        </mxCell>
        <mxCell id="dX1tPgIVMrB4nz6N0DZW-53" value="&lt;font style=&quot;font-size: 11px;&quot;&gt;Signal?&lt;/font&gt;" style="strokeWidth=2;html=1;shape=mxgraph.flowchart.decision;whiteSpace=wrap;" parent="2" vertex="1">
          <mxGeometry x="120" y="320" width="60" height="60" as="geometry" />
        </mxCell>
        <mxCell id="dX1tPgIVMrB4nz6N0DZW-60" value="" style="edgeStyle=orthogonalEdgeStyle;rounded=0;orthogonalLoop=1;jettySize=auto;html=1;exitX=0.5;exitY=1;exitDx=0;exitDy=0;entryX=0.5;entryY=0;entryDx=0;entryDy=0;" parent="2" source="dX1tPgIVMrB4nz6N0DZW-41" target="dX1tPgIVMrB4nz6N0DZW-43" edge="1">
          <mxGeometry relative="1" as="geometry">
            <mxPoint x="180" y="400" as="sourcePoint" />
            <mxPoint x="260" y="400" as="targetPoint" />
          </mxGeometry>
        </mxCell>
        <mxCell id="dX1tPgIVMrB4nz6N0DZW-64" value="" style="edgeStyle=orthogonalEdgeStyle;rounded=0;orthogonalLoop=1;jettySize=auto;html=1;exitX=0.5;exitY=1;exitDx=0;exitDy=0;entryX=0.5;entryY=0;entryDx=0;entryDy=0;entryPerimeter=0;" parent="2" source="dX1tPgIVMrB4nz6N0DZW-49" target="dX1tPgIVMrB4nz6N0DZW-53" edge="1">
          <mxGeometry relative="1" as="geometry">
            <mxPoint x="125" y="350" as="sourcePoint" />
            <mxPoint x="205" y="350" as="targetPoint" />
          </mxGeometry>
        </mxCell>
        <mxCell id="dX1tPgIVMrB4nz6N0DZW-74" value="" style="edgeStyle=orthogonalEdgeStyle;rounded=0;orthogonalLoop=1;jettySize=auto;html=1;" parent="2" source="dX1tPgIVMrB4nz6N0DZW-68" target="dX1tPgIVMrB4nz6N0DZW-66" edge="1">
          <mxGeometry relative="1" as="geometry" />
        </mxCell>
        <mxCell id="dX1tPgIVMrB4nz6N0DZW-68" value="&lt;div&gt;UP&lt;/div&gt;" style="rounded=1;whiteSpace=wrap;html=1;arcSize=40;fontColor=#000000;fillColor=#FFFFFF;strokeColor=#000000;shadow=0;" parent="2" vertex="1">
          <mxGeometry x="210" y="440" width="65" height="40" as="geometry" />
        </mxCell>
        <mxCell id="dX1tPgIVMrB4nz6N0DZW-65" value="" style="edgeStyle=orthogonalEdgeStyle;rounded=0;orthogonalLoop=1;jettySize=auto;html=1;exitX=1;exitY=0.5;exitDx=0;exitDy=0;exitPerimeter=0;entryX=0.5;entryY=0;entryDx=0;entryDy=0;" parent="2" source="dX1tPgIVMrB4nz6N0DZW-53" target="dX1tPgIVMrB4nz6N0DZW-68" edge="1">
          <mxGeometry relative="1" as="geometry">
            <mxPoint x="185" y="400" as="sourcePoint" />
            <mxPoint x="265" y="400" as="targetPoint" />
          </mxGeometry>
        </mxCell>
        <mxCell id="dX1tPgIVMrB4nz6N0DZW-70" value="" style="edgeStyle=orthogonalEdgeStyle;rounded=0;orthogonalLoop=1;jettySize=auto;html=1;exitX=0;exitY=0.5;exitDx=0;exitDy=0;exitPerimeter=0;entryX=0.5;entryY=0;entryDx=0;entryDy=0;" parent="2" source="dX1tPgIVMrB4nz6N0DZW-53" target="dX1tPgIVMrB4nz6N0DZW-50" edge="1">
          <mxGeometry relative="1" as="geometry">
            <mxPoint x="205" y="420" as="sourcePoint" />
            <mxPoint x="285" y="420" as="targetPoint" />
          </mxGeometry>
        </mxCell>
        <mxCell id="dX1tPgIVMrB4nz6N0DZW-66" value="" style="line;strokeWidth=4;html=1;perimeter=backbonePerimeter;points=[];outlineConnect=0;" parent="2" vertex="1">
          <mxGeometry x="20" y="520" width="260" height="10" as="geometry" />
        </mxCell>
        <mxCell id="3" value="System" style="swimlane;whiteSpace=wrap;strokeColor=default;" parent="1" vertex="1">
          <mxGeometry x="600" y="120" width="300" height="600" as="geometry" />
        </mxCell>
        <mxCell id="dX1tPgIVMrB4nz6N0DZW-44" value="&lt;div&gt;Predict price&lt;/div&gt;&lt;div&gt;generate a signal&lt;/div&gt;" style="rounded=1;whiteSpace=wrap;html=1;arcSize=40;fontColor=#000000;fillColor=#FFFFFF;strokeColor=#000000;shadow=0;" parent="3" vertex="1">
          <mxGeometry x="90" y="170" width="120" height="40" as="geometry" />
        </mxCell>
        <mxCell id="dX1tPgIVMrB4nz6N0DZW-51" value="Send results" style="rounded=1;whiteSpace=wrap;html=1;arcSize=40;fontColor=#000000;fillColor=#FFFFFF;strokeColor=#000000;shadow=0;" parent="3" vertex="1">
          <mxGeometry x="90" y="253" width="120" height="40" as="geometry" />
        </mxCell>
        <mxCell id="dX1tPgIVMrB4nz6N0DZW-62" value="" style="edgeStyle=orthogonalEdgeStyle;rounded=0;orthogonalLoop=1;jettySize=auto;html=1;exitX=0.5;exitY=1;exitDx=0;exitDy=0;entryX=0.5;entryY=0;entryDx=0;entryDy=0;" parent="3" source="dX1tPgIVMrB4nz6N0DZW-44" target="dX1tPgIVMrB4nz6N0DZW-51" edge="1">
          <mxGeometry relative="1" as="geometry">
            <mxPoint x="110" y="260" as="sourcePoint" />
            <mxPoint x="190" y="260" as="targetPoint" />
          </mxGeometry>
        </mxCell>
        <mxCell id="dX1tPgIVMrB4nz6N0DZW-61" value="" style="edgeStyle=orthogonalEdgeStyle;rounded=0;orthogonalLoop=1;jettySize=auto;html=1;exitX=1;exitY=0.5;exitDx=0;exitDy=0;entryX=0;entryY=0.5;entryDx=0;entryDy=0;" parent="1" source="dX1tPgIVMrB4nz6N0DZW-43" target="dX1tPgIVMrB4nz6N0DZW-44" edge="1">
          <mxGeometry relative="1" as="geometry">
            <mxPoint x="545" y="339.8" as="sourcePoint" />
            <mxPoint x="625" y="339.8" as="targetPoint" />
          </mxGeometry>
        </mxCell>
        <mxCell id="dX1tPgIVMrB4nz6N0DZW-63" value="" style="edgeStyle=orthogonalEdgeStyle;rounded=0;orthogonalLoop=1;jettySize=auto;html=1;entryX=1;entryY=0.5;entryDx=0;entryDy=0;exitX=0;exitY=0.5;exitDx=0;exitDy=0;" parent="1" source="dX1tPgIVMrB4nz6N0DZW-51" target="dX1tPgIVMrB4nz6N0DZW-49" edge="1">
          <mxGeometry relative="1" as="geometry">
            <mxPoint x="570" y="419.8" as="sourcePoint" />
            <mxPoint x="650" y="419.8" as="targetPoint" />
          </mxGeometry>
        </mxCell>
        <mxCell id="dX1tPgIVMrB4nz6N0DZW-76" value="" style="edgeStyle=orthogonalEdgeStyle;rounded=0;orthogonalLoop=1;jettySize=auto;html=1;entryX=0.5;entryY=0;entryDx=0;entryDy=0;" parent="1" source="dX1tPgIVMrB4nz6N0DZW-66" target="dX1tPgIVMrB4nz6N0DZW-77" edge="1">
          <mxGeometry relative="1" as="geometry">
            <mxPoint x="460" y="735" as="targetPoint" />
          </mxGeometry>
        </mxCell>
        <mxCell id="dX1tPgIVMrB4nz6N0DZW-77" value="" style="ellipse;html=1;shape=endState;fillColor=#000000;strokeColor=#000000;" parent="1" vertex="1">
          <mxGeometry x="435" y="680" width="30" height="30" as="geometry" />
        </mxCell>
      </root>
    </mxGraphModel>
  </diagram>
</mxfile>
